<?xml version="1.0" encoding="UTF-8"?>
<svg id="Ebene_1" data-name="Ebene 1" xmlns="http://www.w3.org/2000/svg" viewBox="0 0 574.63 338.3">
  <defs>
    <style>
      .cls-1 {
        fill: #fd7e14;
      }
    </style>
  </defs>
  <path class="cls-1" d="M339.01,338.3H12.59c-10.95,0-16.66-13.03-9.24-21.08l71.43-77.47h379.15l-85.87,86.46c-7.68,7.74-18.14,12.09-29.04,12.09Z"/>
  <polygon class="cls-1" points="505.92 135.54 164.53 135.54 263.41 44.34 441.34 44.34 505.92 135.54"/>
  <path class="cls-1" d="M441.92,233.41h-220.34c-4.13,0-7.98-2.07-10.26-5.52l-44.45-67.28c-5.4-8.17.46-19.07,10.26-19.07h223.69c4.28,0,8.26,2.23,10.49,5.88l41.1,67.28c5,8.19-.89,18.7-10.49,18.7Z"/>
  <path class="cls-1" d="M350.59,38.33h-69.32c-5.53,0-8.05-6.9-3.82-10.46l24.16-20.33c1.07-.9,2.42-1.39,3.82-1.39h30.24c1.89,0,3.66.9,4.78,2.42l14.91,20.33c2.87,3.91.08,9.43-4.78,9.43Z"/>
  <path class="cls-1" d="M371.14,0h24.1c6.82,0,13.21,3.35,17.08,8.96l27.44,39.72"/>
  <polygon class="cls-1" points="542.78 33.09 542.78 61.93 574.63 46.79 542.78 33.09"/>
  <path class="cls-1" d="M469.51,202.68l31.77-43.76c5.11-7.04,4.89-16.62-.53-23.42l-4.85-6.08"/>
</svg>